<?xml version="1.0" encoding="utf-8"?>
<!-- Generator: Adobe Illustrator 23.0.1, SVG Export Plug-In . SVG Version: 6.00 Build 0)  -->
<svg version="1.1" id="Capa_1" xmlns="http://www.w3.org/2000/svg" xmlns:xlink="http://www.w3.org/1999/xlink" x="0px" y="0px"
	 viewBox="0 0 2510 526.4" style="enable-background:new 0 0 2510 526.4;" xml:space="preserve">
<g>
	<g>
		<path style="fill:#52B89E;" d="M1411.4,477.8c0,8.7,0,17.3,0,25.9c0,7.3-0.1,7.4-7.1,7.4c-32.6,0-65.2,0-97.8,0
			c-6.7,0-6.8-0.2-6.9-6.9c0-1.2,0-2.4,0-3.6c0-163.7,0-327.4,0-491c0-10.7-0.9-9.8,9.7-9.8c30.9,0,61.8,0,92.7,0
			c1.7,0,3.4,0.1,5.1,0c3-0.1,4.6,1,4.4,4.2c-0.1,1.9,0,3.9,0,5.8c0,67.8,0,135.7,0,203.5c0,3.1,0,6.3,0,9.6
			c2.9-0.3,4.7-2.2,6.5-3.8c8.4-8,17.8-14.5,28-19.9c4.9-2.6,10.1-4.3,15.3-6.3c7.5-2.9,15.5-5.4,23.3-6.7c13-2.1,26.3-2.9,39.6-1.5
			c12.8,1.3,25,4.6,37,8.5c10.1,3.3,19.8,7.9,29.1,13.7c13.8,8.7,25.8,19.1,36.6,31.1c8.7,9.7,15.3,20.8,21.5,32.2
			c6.5,11.9,10.1,24.7,14,37.6c6.7,22.4,6.6,45.1,4.8,67.9c-0.6,7.6-3,15.4-4.9,23c-2.5,9.8-5.2,19.5-9.7,28.5
			c-7,14.1-14.6,27.9-25.2,40c-9.1,10.4-19.4,19.3-30.2,27.6c-4.9,3.8-10.4,6.9-16.1,9.5c-14.1,6.5-28.3,12.5-44,14.9
			c-11.8,1.8-23.5,2.4-35.3,2.2c-24.2-0.4-46.1-8-66.2-21.5c-6.7-4.5-11.6-10.7-17.1-16.4C1416.5,481.3,1415.2,478.5,1411.4,477.8z
			 M1408.4,353c0,3.1-0.2,5.8,0,8.4c2,20.9,10.8,38.2,28.5,50c12.4,8.3,26.5,11.6,41.3,12.8c8.2,0.7,15.7-1.7,23.3-3.4
			c10.1-2.3,19.9-6.5,27.4-13.8c10.4-10.1,18.3-21.7,21-36.7c4.1-22.2,1.5-42.5-12-61c-9.1-12.5-21.1-20.9-36.1-24.5
			c-17.5-4.2-34.6-3.9-51.8,2.6c-12.2,4.6-21.9,12.1-29,22.5C1412.3,323,1406.9,337.3,1408.4,353z"/>
		<path style="fill:#52B89E;" d="M455.4,303.2c0,31.4-0.3,62.8,0.1,94.2c0.2,14.7-2,28.9-7,42.5c-3.7,10.1-9.3,19.4-16.1,28
			c-12.1,15.3-26.9,27.2-44.5,35.8c-25,12.3-51.4,16.9-79,14.5c-15.4-1.3-29.1-7.7-42.6-14.6c-12.3-6.3-22.5-15.5-32.7-24.6
			c-4-3.6-4-3.8-8.1-0.2c-6.2,5.3-11.9,11.2-18.5,16c-5.7,4.2-12.2,7.7-18.5,10.9c-8.1,4.1-16.2,8.1-25.1,10.2
			c-4.2,1-8.5,1.9-12.8,2.3c-14.2,1.3-28.6,0.9-42.5-1.8c-18.2-3.5-35.4-10.6-51-20.5c-14.3-9-26.3-21-35.7-35
			c-6.4-9.5-10.2-20.5-14-31.4c-4.4-12.6-4.6-25.4-4.6-38.4c0-64,0-128,0-192c0-1.7,0-3.4,0-5.1c0.2-5.5,0.2-5.6,5.8-5.6
			c31.4,0,62.8,0,94.2,0c6,0,6,0.1,6,7.6c0,54.6,0,109.1,0,163.7c0,8-0.4,16,0.2,23.9c0.7,10.9,4.4,20.5,13.7,27.3
			c5.3,3.9,11.8,5,17.7,5.3c8.8,0.4,17.8-1.2,25-7.5c6.2-5.5,9.2-12.6,10.3-20.8c1-7.7,1-15.4,1-23.1c0-55.8,0-111.5,0-167.3
			c0-10.3,0-9.1,9-9.1c29.5,0,58.9,0,88.4,0c1.7,0,3.4,0,5.1,0c2.7,0,4,1.6,4.2,4c0.2,2.2,0.2,4.3,0.2,6.5c0,58.7,0,117.3,0,176
			c0,4.6-0.2,9.2,0.3,13.7c1.5,12.7,8.3,23.2,22.6,26.2c9,1.9,17.1,0.8,25.4-1.8c4.6-1.4,8-4.2,10.5-8.2c5-7.7,7-16.1,7-25.3
			c-0.1-39.6-0.1-79.2-0.1-118.8c0-21.7,0-43.5,0-65.2c0-7.2,0.1-7.3,7.2-7.3c30.7,0,61.3,0,92,0c6.7,0,6.8,0.1,6.8,6.8
			C455.4,231.3,455.4,267.3,455.4,303.2L455.4,303.2z"/>
		<path style="fill:#52B89E;" d="M756.8,223.7c0-7.7,0-14.5,0-21.2c0-7.3,0-7.3,7.7-7.3c13.3,0,26.5,0,39.8,0c19.1,0,38.1,0,57.2,0
			c8.6,0,7.9-0.1,7.9,7.8c0,66.4,0,132.7,0,199.1c0,32.8,0,65.6,0,98.5c0,1.4,0,2.9,0,4.3c-0.2,6.6-0.6,7.1-7,7.1
			c-11.3,0.1-22.7,0-34,0c-21,0-42,0-63,0c-7.8,0-8.6-0.9-8.6-8.8c0-8.1,0-16.2,0-24.8c-4.2,1.9-5.9,5.3-8.1,7.8
			c-8.7,9.9-19.4,17-31,23c-9.4,4.8-19.5,7.3-29.8,9.7c-14.2,3.3-28.4,3-42.4,1.9c-16.2-1.3-32.2-4.8-47-12.2
			c-6.6-3.3-13.6-6.2-19.8-10.3c-17.6-11.5-32.9-25.3-45-42.9c-6.4-9.4-12.2-18.9-16.6-29.3c-4.7-11.2-9.3-22.4-11.7-34.5
			c-3-15-4.2-30-3.9-45.2c0.3-17.2,2.9-34,8.5-50.3c4.7-13.6,9.8-27.2,18-39c7.5-10.8,15.2-21.4,25.1-30.4
			c12.3-11.3,25.6-20.9,40.7-28c10.4-4.9,21.5-7.8,32.7-10.7c12-3.1,24.1-4.3,36.3-4c21.6,0.6,42,6.1,61.5,15.6
			C736.2,205.5,745.9,214.2,756.8,223.7z M688.6,424.3c10.6,0.5,20.3-3,30.1-6.1c14.2-4.4,24.4-14.1,32.1-26.2
			c5.2-8.1,7.7-17.3,9-27c3.4-25.5-2.6-47.5-21.6-65.6c-7-6.7-15.2-11.4-24.2-13.8c-18.5-4.8-36.9-4.9-55.3,2.1
			c-11.1,4.2-20.2,11-26.6,20.1c-11.8,16.8-18.3,35.6-14.3,57c1.3,6.9,3.5,13.4,6,19.9c3.7,9.6,9.8,17.6,17.9,23.9
			C655.5,419.2,671.7,422.8,688.6,424.3z"/>
		<path style="fill:#52B89E;" d="M1888.6,521.2c-16.5,1.4-32.7-1.8-48.8-4.7c-13.7-2.5-26.6-7.7-39.5-12.8
			c-16-6.4-30.3-15.5-43.6-26.1c-8.5-6.9-16.3-14.7-23.2-23.5c-6.2-7.9-11.5-16.4-16.4-25.2c-5.9-10.8-9.6-22.5-12.5-34.4
			c-3.3-13.6-5.9-27.3-5.8-41.3c0.1-11.7,1.9-23.3,4.5-34.8c1.8-8,3.9-15.8,6.3-23.6c2.7-8.7,6.3-17,11.4-24.6
			c4.4-6.6,7.8-13.8,13.3-19.7c7.5-8.1,14.9-16.1,23.6-23.1c15.1-12.2,31.8-21.4,49.7-28.5c8.7-3.4,17.7-5.9,26.8-8.1
			c7.2-1.7,14.8-1.6,21.6-4.9c0.6-0.3,1.4-0.3,2.1-0.3c8.7-0.6,17.3-1.1,26-1.7c12.6-0.8,25.3-0.2,37.5,2
			c20.8,3.9,41.9,7.8,61.2,17.4c10.5,5.3,21.1,10.5,30.7,17.3c7.2,5.1,14.3,10.8,20.4,17.1c11.8,12.3,22.1,25.7,29.7,41.3
			c6.3,12.8,10.2,26.1,13.2,40c4.3,19.6,4.3,39.4,1.8,58.9c-2.7,20.7-9.2,40.6-20.2,58.7c-10.8,17.9-24.5,33.2-41.2,45.5
			c-13.7,10.1-28.5,18.4-44.6,24.4c-10.3,3.9-20.7,7.9-31.4,9.8c-14.2,2.5-28.4,5.5-43,4.9C1894.9,521.1,1891.7,521.2,1888.6,521.2z
			 M1818.3,356.3c-0.4,5.1,1,12.4,2.9,19.7c3.6,13.5,11.4,24.5,21.9,32.9c12.2,9.9,27.2,13.7,42.6,15.1c6.8,0.6,13.6,0.1,20.6-2.1
			c4.9-1.5,10.1-2.9,15.1-4.4c7-2.2,13.2-6.1,18.3-11.1c10.1-10.1,17.5-21.9,20.3-36.4c3.5-17.3,2.1-33.8-5.6-49.8
			c-9.3-19.1-24.2-31.4-44.9-36c-11.5-2.6-23.3-2.8-35.1-0.8c-10.9,1.9-20.8,5.7-29.4,12.5C1826.1,310.6,1818.1,330.4,1818.3,356.3z
			"/>
		<path style="fill:#52B89E;" d="M2078.2,195.8c2.3-1,4.7-0.6,7.1-0.6c42.2,0,84.5,0.1,126.7-0.1c5,0,8.6,1.3,11.9,5.1
			c12.2,14.2,24.8,28,36.7,42.5c3.8,4.7,8.1,8.9,12.1,13.4c2.1,2.4,4,2.1,6.1-0.1c3.9-4.3,7.8-8.5,11.6-12.8
			c9.8-10.8,18.6-22.6,29-33c3.4-3.4,6.3-7.3,9-11.3c2-3,4.5-4.1,7.9-3.9c1.2,0.1,2.4,0,3.6,0c42.2,0,84.5,0,126.7,0
			c2.6,0,5.2,0,8,0c0,5.4-4.1,7.9-6.6,10.4c-9,9-16.6,19.3-25.8,28.1c-4.3,4.1-7.8,9.1-11.8,13.6c-13.1,14.6-26.4,29.2-39.6,43.8
			c-13.4,14.8-26.7,29.5-40.1,44.3c-3.2,3.5-3.1,5.2,0,8.6c11.6,12.5,23.1,25,34.6,37.5c16,17.3,32.1,34.4,48,51.8
			c13.5,14.7,26.4,29.9,40.3,44.1c8.4,8.6,15.6,18.3,24.6,26.3c0.9,0.8,1.7,1.7,2.5,2.6c1.1,1.1,1.7,2.4,1.2,3.9
			c-0.6,1.8-2.1,1.7-3.6,1.7c-1.7,0-3.4,0-5.1,0c-41,0-82.1-0.3-123.1,0.2c-8.9,0.1-15-2.8-20.5-9.2c-3.7-4.4-7.1-9.2-11-13.3
			c-6.6-7-12.6-14.5-18.9-21.7c-11.5-13.3-23.1-26.4-34.7-39.5c-3-3.4-5.5-8.9-9.3-9.3c-4.3-0.4-6.1,5.8-9,9.1
			c-14.8,16.7-29.5,33.4-44.2,50.3c-7.9,9-15.7,18.2-23.4,27.4c-3.6,4.3-7.6,6.4-13.6,6.3c-42.7-0.3-85.5-0.1-128.2-0.2
			c-2.5,0-6,1.3-7.4-1.3c-1.7-3.2,1.8-5.2,3.6-7.1c13.1-14.4,26.4-28.6,39.6-42.9c10.7-11.6,21.6-23.1,32.1-34.9
			c10-11.3,20.5-22.2,30.8-33.2c9.8-10.5,19.2-21.5,28.9-32.1c5.5-6,11.3-11.7,16.7-17.9c2-2.3,2.2-3.4,0.1-5.9
			c-10.5-12.2-21.4-24-31.9-36.1c-9.8-11.2-19.7-22.3-29.4-33.5c-12.8-14.9-25.8-29.6-39-44.2c-7.2-8-13.5-16.9-21.7-24.1
			C2079.1,198.2,2078,197.2,2078.2,195.8z"/>
		<path style="fill:#52B89E;" d="M1044.6,256.2c0,82.6,0,165.1,0,247.7c0,9.5,0.8,8.6-8.5,8.6c-32.1,0-64.2,0-96.3,0
			c-1.4,0-2.9-0.1-4.3,0c-2.8,0.1-4-1.2-3.8-3.9c0.1-1.7,0-3.4,0-5.1c0-164.9,0-329.7,0-494.6c0-10-0.9-9,8.9-9
			c31.9,0,63.7,0,95.6,0c1.7,0,3.4,0.1,5.1,0c2.4-0.1,3.5,1.1,3.5,3.5c0,1.9,0,3.9,0,5.8C1044.6,91.6,1044.6,173.9,1044.6,256.2z"/>
		<path style="fill:#52B89E;" d="M1117,255.4c0-81.3,0-162.7,0-244c0-1.7,0-3.4,0-5.1c0.1-6.2,0.1-6.3,6.5-6.3c32.8,0,65.7,0,98.5,0
			c8.9,0,8.1-0.5,8.1,8.3c0,144.1,0,288.2,0,432.3c0,21.7,0,43.4,0,65.2c0,6.6-0.1,6.7-6.8,6.7c-33.1,0-66.1,0-99.2,0
			c-1.2,0-2.4-0.1-3.6,0c-2.5,0.1-3.4-1.3-3.4-3.6c0-1.9,0-3.9,0-5.8C1117,420.5,1117,338,1117,255.4z"/>
	</g>
</g>
</svg>
